Coordinates
nRows=181
nColumns=2
inDegrees=yes
endheader
time	ankle_angle_r	
2.68733	  9.582520	
2.74982	  9.735107	
2.81232	  9.613037	
2.87482	  9.689331	
2.93731	  9.780884	
2.99981	  9.750366	
3.0623	  9.826660	
3.1248	  9.826660	
3.1873	  9.689331	
3.24979	  9.689331	
3.31229	  9.704590	
3.37478	  9.643555	
3.43728	  9.826660	
3.49978	  9.719849	
3.56227	  9.780884	
3.62477	  9.765625	
3.68726	  9.674072	
3.74976	  9.658813	
3.81226	  9.719849	
3.87475	  9.643555	
3.93725	  9.780884	
3.99974	  9.780884	
4.06224	  9.704590	
4.12474	  9.719849	
4.18723	  9.613037	
4.24973	  9.643555	
4.31222	  9.628296	
4.37472	  9.582520	
4.43722	  9.704590	
4.49971	  9.658813	
4.56221	  9.643555	
4.6247	  9.704590	
4.6872	  9.643555	
4.7497	  9.597778	
4.81219	  9.628296	
4.87469	  9.582520	
4.93718	  9.582520	
4.99968	  9.704590	
5.06218	  9.750366	
5.12467	  9.765625	
5.18717	  9.750366	
5.24966	  9.643555	
5.31216	  9.750366	
5.37466	  9.643555	
5.43715	  9.689331	
5.49965	  9.796143	
5.56214	  9.750366	
5.62464	  9.780884	
5.68714	  9.811401	
5.74963	  9.613037	
5.81213	  9.689331	
5.87462	  9.597778	
5.93712	  9.628296	
5.99962	  9.796143	
6.06211	  9.719849	
6.12461	  9.689331	
6.1871	  9.811401	
6.2496	  9.628296	
6.3121	  9.719849	
6.37459	  9.704590	
6.43709	  9.658813	
6.49958	  9.750366	
6.56208	  9.658813	
6.62458	  9.643555	
6.68707	  9.689331	
6.74957	  9.521484	
6.81206	  9.597778	
6.87456	  9.613037	
6.93706	  9.582520	
6.99955	  9.719849	
7.06205	  9.674072	
7.12454	  9.658813	
7.18704	  9.704590	
7.24954	  9.643555	
7.31203	  9.628296	
7.37453	  9.750366	
7.43702	  9.674072	
7.49952	  9.689331	
7.56202	  9.765625	
7.62451	  9.765625	
7.68701	  9.765625	
7.7495	  9.765625	
7.812	  9.613037	
7.8745	  9.689331	
7.93699	  9.643555	
7.99949	  9.567261	
8.06198	  9.689331	
8.12448	  9.628296	
8.18698	  9.689331	
8.24947	  9.704590	
8.31197	  9.567261	
8.37446	  9.597778	
8.43696	  9.597778	
8.49946	  9.582520	
8.56195	  9.689331	
8.62445	  9.658813	
8.68694	  9.735107	
8.74944	  9.765625	
8.81194	  9.582520	
8.87443	  9.628296	
8.93693	  9.719849	
8.99942	  9.597778	
9.06192	  9.841919	
9.12442	  9.750366	
9.18691	  9.704590	
9.24941	  9.841919	
9.3119	  9.674072	
9.3744	  9.628296	
9.4369	  9.704590	
9.49939	  9.628296	
9.56189	  9.658813	
9.62438	  9.674072	
9.68688	  9.674072	
9.74938	  9.658813	
9.81187	  9.552002	
9.87437	  9.552002	
9.93686	  9.628296	
9.99936	  9.552002	
10.0619	  9.704590	
10.1244	  9.750366	
10.1868	  9.750366	
10.2493	  9.780884	
10.3118	  9.780884	
10.3743	  9.719849	
10.4368	  9.735107	
10.4993	  9.597778	
10.5618	  9.704590	
10.6243	  9.811401	
10.6868	  9.735107	
10.7493	  9.750366	
10.8118	  9.719849	
10.8743	  9.582520	
10.9368	  9.613037	
10.9993	  9.613037	
11.0618	  9.613037	
11.1243	  9.750366	
11.1868	  9.628296	
11.2493	  9.628296	
11.3118	  9.689331	
11.3743	  9.582520	
11.4368	  9.597778	
11.4993	  9.582520	
11.5618	  9.536743	
11.6243	  9.735107	
11.6868	  9.719849	
11.7492	  9.750366	
11.8117	  9.796143	
11.8742	  9.704590	
11.9367	  9.704590	
11.9992	  9.719849	
12.0617	  9.658813	
12.1242	  9.796143	
12.1867	  9.719849	
12.2492	  9.704590	
12.3117	  9.735107	
12.3742	  9.658813	
12.4367	  9.643555	
12.4992	  9.674072	
12.5617	  9.552002	
12.6242	  9.704590	
12.6867	  9.674072	
12.7492	  9.658813	
12.8117	  9.658813	
12.8742	  9.628296	
12.9367	  9.582520	
12.9992	  9.643555	
13.0617	  9.597778	
13.1242	  9.613037	
13.1867	  9.719849	
13.2492	  9.704590	
13.3116	  9.750366	
13.3741	  9.750366	
13.4366	  9.719849	
13.4991	  9.765625	
13.5616	  9.704590	
13.6241	  9.597778	
13.6866	  9.765625	
13.7491	  9.750366	
13.8116	  9.704590	
13.8741	  9.750366	
13.9366	  9.552002	
